<svg fill="#000000" xmlns="http://www.w3.org/2000/svg"  viewBox="0 0 50 50" width="100px" height="100px"><path fill="none" stroke="#000000" stroke-miterlimit="10" stroke-width="2" d="M38,32H14v-4h24c1.1,0,2,0.9,2,2C40,31.1,39.1,32,38,32"/><path fill="none" stroke="#000000" stroke-miterlimit="10" stroke-width="2" d="M38 36h3c3.3 0 6-2.7 6-6s-2.7-6-6-6H3v5h2v11H3v5h13v-5h-2v-4h15l2.8 4.3C34 43.5 35.2 45 42.2 45c1 0 4.8 0 4.8 0v-5c0 0-2.5 0-3.5 0C40.4 40 39.1 38 38 36zM47 4L25 4 25 8 33 8 33 20 39 20 39 8 47 8zM13 8h12V4H11c-4.4 0-8 3.6-8 8s3.6 8 8 8h14v-2-2-4H15v4h-2c-2.2 0-4-1.8-4-4S10.8 8 13 8zM16 16L21 16"/></svg>