<svg fill="#000000" xmlns="http://www.w3.org/2000/svg"  viewBox="0 0 50 50" width="100px" height="100px"><path d="M25.311 7.886c.035-.096.061-.184.07-.358V3.387c-.009-.174-.035-.261-.07-.357h.629c-.035.096-.061.183-.07.357v3.748c0 .14.149.305.472.305.323 0 .838 0 1.083-.131l-.358.577H25.311zM28.647 7.886c.035-.096.061-.184.07-.358V3.387c-.009-.174-.035-.261-.07-.357h.629c-.035.096-.061.183-.07.357v3.748c0 .14.149.305.472.305.323 0 .839 0 1.083-.131l-.358.577H28.647zM33.694 3.999l.219-.55c-.096-.017-.219-.053-.384-.123-.155-.065-.437-.184-.707-.184-.271 0-1.015.158-1.057.961-.035.665.41.987.576 1.119.236.175.839.637 1.11 1.013.27.376.41 1.162-.559 1.275-.332 0-.698-.165-.899-.297l.079.682c.201-.036.315.007.402.017.149.017.35.061.542.052.192-.009 1.179-.174 1.179-1.127 0-.838-.585-1.248-.821-1.44-.166-.123-.712-.6-.918-.761-.157-.122-.41-.987.368-1.005C33.214 3.624 33.563 3.921 33.694 3.999zM25.901 46.636c.009.175.035.262.07.358h-.629c.035-.097.061-.184.07-.358v-2.201l-1.292-2.297h.568l.987 1.737.987-1.737h.568l-1.328 2.297V46.636zM33.773 43.911h-.856c-.149 0-.271-.06-.271-.253v-.769c0-.139.149-.305.472-.305.324 0 .612 0 .857.131l-.131-.576h-1.755c.035.096.061.183.069.357v4.141c-.009.175-.035.262-.069.358h1.755l.358-.577c-.244.131-.759.131-1.083.131-.323 0-.472-.165-.472-.305v-1.589c0-.193.123-.253.271-.253h.856V43.911zM31.007 42.971c-.372-.291-.825-.427-1.315-.427-1.078 0-1.952.944-1.952 2.022 0 1.078.874 2.056 1.952 2.056.539 0 1.027-.061 1.38-.414l.02.595c-.395.281-.878.288-1.399.288-1.337 0-2.421-1.188-2.421-2.526 0-1.336 1.084-2.491 2.421-2.491.479 0 .873.07 1.25.31L31.007 42.971zM21.882 3.037c-1.337 0-2.421 1.084-2.421 2.421 0 1.337 1.084 2.421 2.421 2.421 1.337 0 2.421-1.084 2.421-2.421C24.303 4.12 23.219 3.037 21.882 3.037zM21.882 7.408c-1.077 0-1.951-.873-1.951-1.951 0-1.077.874-1.951 1.951-1.951 1.078 0 1.952.874 1.952 1.951C23.834 6.536 22.96 7.408 21.882 7.408zM21.566 42.145c-1.337 0-2.421 1.084-2.421 2.421 0 1.337 1.084 2.421 2.421 2.421 1.337 0 2.421-1.084 2.421-2.421C23.987 43.229 22.903 42.145 21.566 42.145zM21.566 46.517c-1.078 0-1.952-.873-1.952-1.951 0-1.077.874-1.951 1.952-1.951 1.077 0 1.951.874 1.951 1.951C23.518 45.644 22.644 46.517 21.566 46.517zM17.469 5.335c-.053-.061-.043-.157.035-.157l.227.001c.594 0 1.075-.482 1.075-1.075s-.481-1.075-1.075-1.075L16.185 3.03c.035.096.061.183.069.357v4.141c-.008.175-.035.262-.069.358h.629c-.035-.097-.061-.184-.071-.358V5.484c0-.157.097-.149.167-.061l2.088 2.463h.637L17.469 5.335zM16.742 4.682V3.51h.987c.324 0 .587.263.587.587 0 .324-.262.587-.587.587L16.742 4.682zM17.153 44.374c-.052-.061-.044-.157.035-.157h.228c.593 0 1.074-.481 1.074-1.075 0-.593-.481-1.074-1.074-1.074h-1.546c.035.096.061.184.07.358v4.14c-.009.174-.035.262-.07.358h.629c-.035-.096-.061-.184-.07-.358v-2.044c0-.157.096-.148.166-.061l2.087 2.463h.638L17.153 44.374zM16.426 43.721v-1.172h.987c.324 0 .587.262.587.586 0 .325-.262.587-.587.587L16.426 43.721zM22.688 28.066c1.02-.015 2-.101 2.865-.246-.117-.393-.543-1.245-.756-1.596-.791.133-1.527.177-2.109.177v-.425c-.27.096-1.471.27-1.974.329v8.496c0 .89-.387 1.315-.658 1.703h3.29c-.271-.387-.658-.813-.658-1.703V28.066zM26.174 16.239h-3.486v6.928c-.444.155-1.334.446-1.972.503v-7.277c0-.89-.193-1.045-.465-1.432h4.82C25.457 15.194 25.98 15.756 26.174 16.239zM29.598 36.452h4.235c0 0-.547-.355-.765-1.338-.218-.984-.164-2.705-1.093-4.782-.748-1.671-1.779-3.396-2.152-4.005 1.129-.691 2.515-1.907 3.273-3.946 1.42-3.824-1.311-6.666-3.88-7.158 0 0 .71 1.285.82 2.213 0 0 1.618 1.783.382 4.891-.956 2.404-3.169 3.169-3.169 3.169l.792 1.639c0 0 .112-.028.303-.096.489.553 2.415 2.971 2.511 6.764C30.855 33.803 30.991 35.36 29.598 36.452z"/><path d="M30.005,34.376c-0.658-0.348-0.89-1.278-0.929-2.168c-0.426-4.025-2.671-7.161-3.213-7.974c2.55-1.529,3.677-3.874,3.677-6.037c0-3.6-3.174-5.303-5.922-5.303H16.38c0.271,0.387,0.464,0.542,0.464,1.432v18.348c0,0.89-0.387,1.316-0.658,1.703h3.29c-0.27-0.387-0.657-0.813-0.657-1.703v-6.735c2.218-0.036,4.071-0.402,5.556-0.992c2.263,2.424,2.534,5.948,2.573,6.915c0.038,0.968-0.464,1.82-1.239,2.517H30.005z M18.819,24.274V14.17h4.258c2.942,0,3.91,1.858,3.871,3.832C26.753,23.461,21.335,24.274,18.819,24.274z"/><path fill="none" stroke="#000000" stroke-linecap="round" stroke-linejoin="round" stroke-miterlimit="10" stroke-width="2" d="M37 1H13c-.552 0-1 .448-1 1v46c0 .552.448 1 1 1h24c.552 0 1-.448 1-1V2C38 1.448 37.552 1 37 1zM38 10L12 10M38 40L12 40"/></svg>