<svg fill="#000000" xmlns="http://www.w3.org/2000/svg"  viewBox="0 0 50 50" width="100px" height="100px"><path fill="none" stroke="#000000" stroke-miterlimit="10" stroke-width="2" d="M8.5 18A7.5 7.5 0 1 0 8.5 33 7.5 7.5 0 1 0 8.5 18zM41.5 18A7.5 7.5 0 1 0 41.5 33 7.5 7.5 0 1 0 41.5 18z"/><path fill="none" stroke="#000000" stroke-miterlimit="10" stroke-width="2" d="M30.5 18A7.5 7.5 0 1 0 30.5 33A7.5 7.5 0 1 0 30.5 18Z"/><path fill="none" stroke="#000000" stroke-miterlimit="10" stroke-width="2" d="M19.5 18A7.5 7.5 0 1 0 19.5 33A7.5 7.5 0 1 0 19.5 18Z"/></svg>